<svg width="720" height="220" viewBox="0 0 720 220" fill="none" xmlns="http://www.w3.org/2000/svg"><defs><pattern id="g" width="22" height="22" patternUnits="userSpaceOnUse"><path d="M22 0H0V22" fill="none" stroke="#223142" opacity=".34"/></pattern><linearGradient id="a" x1="0" y1="0" x2="1" y2="1"><stop stop-color="#6EE7FF"/><stop offset="1" stop-color="#7CFFB2"/></linearGradient></defs><rect width="720" height="220" rx="22" fill="#0A0F14"/><rect width="720" height="220" rx="22" fill="url(#g)"/><rect x="1" y="1" width="718" height="218" rx="21" stroke="#293646" stroke-width="2"/><text x="24" y="31" fill="#7F8D9B" font-family="monospace" font-size="11">FLUTTERLENS / INSPECTOR</text><text x="24" y="66" fill="#F3F7FB" font-family="Arial,Helvetica,sans-serif" font-size="27" font-weight="700">See the widget tree live.</text><text x="24" y="94" fill="#AAB6C3" font-family="Arial,Helvetica,sans-serif" font-size="15">Runtime inspection with real Flutter tooling APIs.</text><g transform="translate(24 124)"><rect width="82" height="30" rx="9" fill="#101720" stroke="#2D3A48"/><text x="13" y="20" fill="#EAF0F6" font-family="monospace" font-size="11">DevTools</text></g><g transform="translate(114 124)"><rect width="86" height="30" rx="9" fill="#101720" stroke="#2D3A48"/><text x="13" y="20" fill="#EAF0F6" font-family="monospace" font-size="11">Inspector</text></g><g transform="translate(208 124)"><rect width="94" height="30" rx="9" fill="#101720" stroke="#2D3A48"/><text x="13" y="20" fill="#EAF0F6" font-family="monospace" font-size="11">VM Service</text></g><g transform="translate(416 28)"><rect width="274" height="160" rx="16" fill="#0E151C" stroke="#2D3A48"/><rect x="0" y="0" width="274" height="30" rx="16" fill="#111922"/><circle cx="16" cy="15" r="4" fill="#6EE7FF"/><text x="29" y="19" fill="#7D8995" font-family="monospace" font-size="10">widget_tree.dart</text><path d="M116 31V160" stroke="#273441"/><text x="12" y="51" fill="#6EE7FF" font-family="monospace" font-size="10">TREE</text><text x="128" y="51" fill="#D8FF72" font-family="monospace" font-size="10">PROPERTIES</text><circle cx="17" cy="70" r="3" fill="#7CFFB2"/><text x="28" y="74" fill="#F1F5F9" font-family="monospace" font-size="10">MaterialApp</text><path d="M17 73V93H31" stroke="#475666"/><circle cx="31" cy="93" r="3" fill="#6EE7FF"/><text x="42" y="97" fill="#F1F5F9" font-family="monospace" font-size="10">Scaffold</text><path d="M31 96V116H45" stroke="#475666"/><circle cx="45" cy="116" r="3" fill="#D8FF72"/><text x="56" y="120" fill="#F1F5F9" font-family="monospace" font-size="10">Column</text><rect x="124" y="67" width="136" height="22" rx="6" fill="#131C25"/><text x="132" y="81" fill="#AAB6C3" font-family="monospace" font-size="9">size   390 × 844</text><rect x="124" y="97" width="136" height="22" rx="6" fill="#131C25"/><text x="132" y="111" fill="#AAB6C3" font-family="monospace" font-size="9">source main.dart:42</text><rect x="124" y="127" width="94" height="20" rx="6" fill="#152329" stroke="#24505A"/><text x="132" y="140" fill="#7CFFB2" font-family="monospace" font-size="9">SELECTED</text></g><rect x="24" y="188" width="174" height="3" rx="1.5" fill="url(#a)"/></svg>